<svg width="1171" height="38" viewBox="0 0 1171 38" fill="none" xmlns="http://www.w3.org/2000/svg">
<path d="M35.8574 13.1274C30.672 13.1274 26.2061 15.7431 24.2546 19.4751C22.303 15.7431 17.8371 13.1274 12.6518 13.1274C10.2326 13.1274 7.97026 13.697 6.04634 14.6832V6.00108C6.04634 4.60852 4.69277 3.47974 3.02325 3.47974C1.35372 3.47974 0 4.60852 0 6.0012V23.6792C0 29.4975 5.67559 34.231 12.6516 34.231C17.8371 34.231 22.303 31.6153 24.2544 27.8833C26.2061 31.6155 30.672 34.231 35.8573 34.231C42.8333 34.231 48.5089 29.4974 48.5089 23.6792C48.5092 17.861 42.8336 13.1274 35.8574 13.1274ZM12.6516 29.1882C9.00941 29.1882 6.04618 26.7169 6.04618 23.6791C6.04618 20.6415 9.00941 18.1701 12.6516 18.1701C16.2939 18.1701 19.257 20.6414 19.257 23.6791C19.2571 26.7169 16.2939 29.1882 12.6516 29.1882ZM35.8574 29.1882C32.2152 29.1882 29.2521 26.7169 29.2521 23.6791C29.2521 20.6415 32.2152 18.1701 35.8574 18.1701C39.4996 18.1701 42.4627 20.6414 42.4627 23.6791C42.4629 26.7169 39.4996 29.1882 35.8574 29.1882Z" fill="#00AEF0"/>
<path d="M62.3142 23.5747L69.731 16.5C70.83 15.4517 70.702 13.8587 69.4451 12.9421C68.1882 12.0255 66.2782 12.1323 65.1792 13.1806L58.2984 19.7441L51.4176 13.1806C50.3186 12.1323 48.4089 12.0256 47.1518 12.9421C45.8949 13.8587 45.7668 15.4517 46.8658 16.5L54.2827 23.5747L46.8658 30.6494C45.7668 31.6977 45.8949 33.2907 47.1518 34.2073C47.7251 34.6255 48.4343 34.8304 49.1405 34.8304C49.9824 34.8304 50.82 34.5388 51.4176 33.9688L58.2984 27.4053L65.1792 33.9688C65.777 34.5389 66.6144 34.8304 67.4564 34.8304C68.1625 34.8304 68.8716 34.6252 69.4451 34.2073C70.702 33.2907 70.83 31.6977 69.731 30.6494L62.3142 23.5747Z" fill="#00AEF0"/>
<path d="M253.291 26.8895L247.194 33.0819C246.336 33.9531 246.746 35.2688 248.004 35.6817L253.965 37.6384C255.251 38.0605 256.648 37.2888 256.685 36.1367L256.942 28.0252C256.994 26.3901 254.536 25.6255 253.291 26.8895Z" fill="#DC0000"/>
<path d="M252.278 20.7339L243.236 18.0263C241.963 17.6453 240.615 18.4094 240.572 19.5363L240.366 24.8761C240.322 26.0281 241.663 26.8668 242.977 26.5081L252.223 23.9833C254.086 23.4744 254.124 21.2866 252.278 20.7339Z" fill="#DC0000"/>
<path d="M262.641 21.6027L271.903 19.4736C273.206 19.174 273.78 17.9019 273.038 16.9598L269.519 12.4954C268.76 11.5323 267.084 11.4908 266.258 12.4148L260.442 18.9196C259.27 20.2308 260.75 22.0373 262.641 21.6027Z" fill="#DC0000"/>
<path d="M255.933 3.04024C256.007 1.7042 254.498 0.696298 252.95 1.04867L245.619 2.71851C244.038 3.07874 243.366 4.64002 244.312 5.75673L252.725 17.9132C252.793 18.0118 252.869 18.1075 252.957 18.1944C254.203 19.4155 256.542 18.963 257.119 17.5335C257.222 17.2767 257.252 17.003 257.226 16.7329L255.933 3.04024Z" fill="#DC0000"/>
<path d="M271.966 27.1595L262.665 24.7777C260.791 24.2976 259.248 26.0676 260.375 27.4066L265.892 33.9661C266.669 34.889 268.298 34.9125 269.112 34.0126L272.971 29.748C273.803 28.828 273.287 27.4978 271.966 27.1595Z" fill="#DC0000"/>
<path d="M533.972 26.57C533.609 22.1339 529.271 18.5696 523.984 18.3543C521.963 18.2721 520.06 18.6685 518.421 19.4196C518.202 10.5857 509.615 3.47974 499.045 3.47974C496.25 3.47974 493.594 3.97875 491.195 4.87419C490.678 5.06693 490.349 5.50125 490.349 5.97603V34.8394C490.349 35.5062 490.993 36.0469 491.787 36.0469H523.46C529.526 36.0467 534.395 31.7413 533.972 26.57Z" fill="url(#paint0_linear)"/>
<path d="M487.547 5.349C486.748 5.349 486.1 5.89326 486.1 6.56453V34.7995C486.1 35.471 486.748 36.0151 487.547 36.0151C488.346 36.0151 488.995 35.4708 488.995 34.7995V6.56453C488.995 5.89326 488.346 5.349 487.547 5.349Z" fill="url(#paint1_linear)"/>
<path d="M482.758 8.35156C481.959 8.35156 481.311 8.89582 481.311 9.5671V34.7995C481.311 35.4709 481.959 36.015 482.758 36.015C483.558 36.015 484.206 35.4708 484.206 34.7995V9.5671C484.206 8.89582 483.558 8.35156 482.758 8.35156Z" fill="url(#paint2_linear)"/>
<path d="M477.969 9.71973C477.17 9.71973 476.522 10.264 476.522 10.9353V34.7995C476.522 35.4709 477.17 36.015 477.969 36.015C478.769 36.015 479.416 35.4708 479.416 34.7995V10.9353C479.417 10.2638 478.769 9.71973 477.969 9.71973Z" fill="url(#paint3_linear)"/>
<path d="M473.181 7.89563C472.381 7.89563 471.733 8.43989 471.733 9.11116V34.7995C471.733 35.471 472.381 36.0151 473.181 36.0151C473.98 36.0151 474.628 35.4708 474.628 34.7995V9.11116C474.628 8.43989 473.98 7.89563 473.181 7.89563Z" fill="url(#paint4_linear)"/>
<path d="M468.392 9.11157C467.592 9.11157 466.944 9.65583 466.944 10.3271V34.7995C466.944 35.4709 467.592 36.015 468.392 36.015C469.191 36.015 469.839 35.4708 469.839 34.7995V10.3271C469.839 9.65583 469.191 9.11157 468.392 9.11157Z" fill="url(#paint5_linear)"/>
<path d="M463.603 11.5439C462.803 11.5439 462.156 12.0882 462.156 12.7595V34.7995C462.156 35.471 462.804 36.0151 463.603 36.0151C464.402 36.0151 465.05 35.4708 465.05 34.7995V12.7595C465.05 12.088 464.402 11.5439 463.603 11.5439Z" fill="url(#paint6_linear)"/>
<path d="M458.814 16.2562C458.015 16.2562 457.367 16.8005 457.367 17.4718V34.7995C457.367 35.471 458.015 36.0151 458.814 36.0151C459.613 36.0151 460.261 35.4708 460.261 34.7995V17.4718C460.261 16.8005 459.613 16.2562 458.814 16.2562Z" fill="url(#paint7_linear)"/>
<path d="M454.025 18.2323C453.226 18.2323 452.578 18.7766 452.578 19.4478V34.7995C452.578 35.471 453.226 36.0151 454.025 36.0151C454.824 36.0151 455.472 35.4708 455.472 34.7995V19.4478C455.472 18.7766 454.824 18.2323 454.025 18.2323Z" fill="url(#paint8_linear)"/>
<path d="M449.236 18.6857C448.437 18.6857 447.789 19.2299 447.789 19.9012V34.3461C447.789 35.0176 448.437 35.5616 449.236 35.5616C450.035 35.5616 450.683 35.0174 450.683 34.3461V19.9012C450.683 19.2299 450.035 18.6857 449.236 18.6857Z" fill="url(#paint9_linear)"/>
<path d="M444.447 21.8599C443.648 21.8599 443 22.4041 443 23.0754V31.399C443 32.0704 443.648 32.6145 444.447 32.6145C445.246 32.6145 445.894 32.0702 445.894 31.399V23.0754C445.894 22.4039 445.246 21.8599 444.447 21.8599Z" fill="url(#paint10_linear)"/>
<path d="M725 3.47974C713.402 3.47974 704 10.7612 704 19.7433C704 28.7254 713.402 36.0068 725 36.0068C736.598 36.0068 746 28.7254 746 19.7433C746 10.7612 736.598 3.47974 725 3.47974ZM734.139 27.0826C733.872 27.4364 733.392 27.6337 732.898 27.6338C732.652 27.6338 732.403 27.5847 732.175 27.4817C728.401 25.7737 724.042 25.4992 721.048 25.5697C717.732 25.6478 715.301 26.1547 715.277 26.1599C714.512 26.3216 713.722 25.9733 713.513 25.3814C713.303 24.7895 713.751 24.1782 714.515 24.0152C714.625 23.9918 717.242 23.4414 720.88 23.3484C723.024 23.2937 725.087 23.4094 727.012 23.6922C729.451 24.0505 731.675 24.6793 733.624 25.5613C734.309 25.8712 734.54 26.5524 734.139 27.0826ZM736.809 22.7883C736.493 23.2075 735.924 23.4412 735.339 23.4412C735.048 23.4412 734.752 23.3832 734.482 23.261C730.012 21.2379 724.848 20.9129 721.302 20.9963C717.375 21.0889 714.494 21.6894 714.466 21.6954C713.56 21.8867 712.625 21.4744 712.376 20.7733C712.128 20.0722 712.659 19.3481 713.564 19.155C713.694 19.1273 716.793 18.4752 721.103 18.3652C723.643 18.3004 726.087 18.4373 728.367 18.7724C731.256 19.1968 733.891 19.9417 736.199 20.9863C737.01 21.3534 737.283 22.1602 736.809 22.7883ZM738.45 18.8838C738.093 18.8838 737.731 18.8126 737.4 18.6628C726.773 13.8529 712.987 16.7124 712.849 16.7419C711.738 16.979 710.59 16.4736 710.284 15.6132C709.977 14.7529 710.63 13.8633 711.741 13.6263C711.9 13.5923 715.702 12.7925 720.989 12.6575C724.104 12.5781 727.101 12.746 729.899 13.157C733.442 13.6775 736.674 14.5912 739.505 15.8726C740.5 16.3229 740.835 17.3125 740.254 18.083C739.866 18.5971 739.168 18.8838 738.45 18.8838Z" fill="#00D95F"/>
<path d="M937.996 21.2803L948.513 15.5829C948.855 15.398 949.299 15.4176 949.615 15.6315L956.686 20.4114C957.187 20.7499 957.147 21.401 956.606 21.6936L946.088 27.391C945.747 27.5759 945.303 27.5563 944.987 27.3424L937.915 22.5626C937.415 22.224 937.455 21.5729 937.996 21.2803Z" fill="#1587EA"/>
<path d="M935.123 22.5625L928.052 27.3424C927.735 27.5562 927.291 27.5758 926.95 27.3909L916.432 21.6936C915.892 21.4009 915.851 20.7498 916.352 20.4113L923.423 15.6315C923.74 15.4176 924.184 15.398 924.525 15.5829L935.043 21.2803C935.583 21.5729 935.624 22.224 935.123 22.5625Z" fill="#1587EA"/>
<path d="M937.915 7.60056L944.987 2.82067C945.303 2.60678 945.747 2.5872 946.088 2.77211L956.606 8.46953C957.147 8.7622 957.187 9.41327 956.686 9.7518L949.615 14.5317C949.299 14.7456 948.855 14.7652 948.513 14.5802L937.996 8.88282C937.455 8.59016 937.415 7.93909 937.915 7.60056Z" fill="#1587EA"/>
<path d="M916.432 8.46953L926.95 2.77211C927.291 2.5872 927.735 2.60678 928.051 2.82067L935.123 7.60056C935.624 7.93909 935.583 8.59016 935.043 8.88282L924.525 14.5802C924.183 14.7652 923.739 14.7456 923.423 14.5317L916.352 9.7518C915.851 9.41319 915.892 8.76212 916.432 8.46953Z" fill="#1587EA"/>
<path d="M937.034 23.4016L944.953 28.7077C945.24 28.9 945.641 28.9169 945.95 28.7498L947.902 27.6925C948.471 27.3843 949.22 27.7274 949.22 28.2961V28.8677C949.22 29.1188 949.064 29.3517 948.808 29.4819L937.019 35.485C936.747 35.6237 936.405 35.6237 936.132 35.485L924.343 29.4819C924.087 29.3517 923.931 29.1189 923.931 28.8677V28.3575C923.931 27.7888 924.681 27.4457 925.25 27.7539L927.087 28.7492C927.396 28.9166 927.798 28.8993 928.085 28.7061L935.967 23.4025C936.279 23.1927 936.722 23.1923 937.034 23.4016Z" fill="#1587EA"/>
<path d="M1171 17.9529C1171 15.4474 1168.53 13.4164 1165.47 13.4164C1163.95 13.4164 1162.57 13.928 1161.57 14.7515C1158.48 13.1153 1154.53 12.0726 1150.19 11.9099C1150.19 10.3985 1151.02 8.98964 1152.46 8.0437C1153.89 7.09617 1155.75 6.74132 1157.55 7.06952L1157.8 7.11459C1157.8 7.16545 1157.79 7.2153 1157.79 7.26666C1157.79 9.35811 1159.86 11.0536 1162.4 11.0536C1164.95 11.0536 1167.02 9.35811 1167.02 7.26666C1167.02 5.17514 1164.95 3.47974 1162.4 3.47974C1160.76 3.47974 1159.33 4.18271 1158.51 5.2392L1158.07 5.15857C1155.56 4.70074 1152.97 5.19573 1150.96 6.51678C1148.96 7.83623 1147.81 9.80165 1147.81 11.9099C1143.47 12.0725 1139.53 13.1147 1136.44 14.7501C1135.44 13.9264 1134.05 13.4163 1132.53 13.4163C1129.47 13.4164 1127 15.4474 1127 17.9529C1127 19.6986 1128.2 21.2109 1129.96 21.9693C1129.83 22.5309 1129.76 23.1051 1129.76 23.6895C1129.76 30.208 1138.37 35.4922 1149 35.4922C1159.63 35.4922 1168.24 30.208 1168.24 23.6895C1168.24 23.1054 1168.17 22.5315 1168.04 21.9702C1169.8 21.2116 1171 19.6987 1171 17.9529ZM1162.4 5.43726C1163.63 5.43726 1164.63 6.25793 1164.63 7.26675C1164.63 8.27548 1163.63 9.09615 1162.4 9.09615C1161.17 9.09615 1160.17 8.27548 1160.17 7.26675C1160.17 6.25793 1161.17 5.43726 1162.4 5.43726ZM1129.38 17.9529C1129.38 16.5308 1130.79 15.3738 1132.53 15.3738C1133.27 15.3738 1133.95 15.5872 1134.49 15.942C1132.8 17.1257 1131.5 18.5171 1130.7 20.0448C1129.9 19.577 1129.38 18.8146 1129.38 17.9529ZM1161.18 30.4672C1157.95 32.4453 1153.63 33.5347 1149 33.5347C1144.37 33.5347 1140.05 32.4453 1136.82 30.4672C1133.81 28.6166 1132.14 26.2095 1132.14 23.6895C1132.14 21.1694 1133.81 18.7624 1136.82 16.9118C1140.05 14.9337 1144.37 13.8442 1149 13.8442C1153.63 13.8442 1157.95 14.9337 1161.18 16.9118C1164.19 18.7624 1165.86 21.1694 1165.86 23.6895C1165.86 26.2095 1164.19 28.6166 1161.18 30.4672ZM1167.3 20.0437C1166.5 18.5161 1165.19 17.1252 1163.51 15.9416C1164.05 15.5869 1164.73 15.3738 1165.47 15.3738C1167.21 15.3738 1168.62 16.5308 1168.62 17.9529C1168.62 18.8145 1168.1 19.576 1167.3 20.0437Z" fill="#181A1C"/>
<path d="M1141.97 22.9987C1143.36 22.9987 1144.49 22.074 1144.49 20.9332C1144.49 19.7924 1143.36 18.8677 1141.97 18.8677C1140.58 18.8677 1139.46 19.7924 1139.46 20.9332C1139.46 22.074 1140.58 22.9987 1141.97 22.9987Z" fill="#D80000"/>
<path d="M1156.03 22.9987C1157.42 22.9987 1158.54 22.074 1158.54 20.9332C1158.54 19.7924 1157.42 18.8677 1156.03 18.8677C1154.64 18.8677 1153.51 19.7924 1153.51 20.9332C1153.51 22.074 1154.64 22.9987 1156.03 22.9987Z" fill="#D80000"/>
<path d="M1154.96 25.9524C1153.19 27.2789 1150.89 28.0095 1148.49 28.0095C1145.79 28.0095 1143.29 27.1174 1141.45 25.4975C1141.01 25.102 1140.25 25.0805 1139.77 25.4491C1139.29 25.8177 1139.26 26.4371 1139.71 26.8324C1141.97 28.8244 1145.17 29.9669 1148.49 29.9669C1151.48 29.9669 1154.35 29.055 1156.57 27.3992C1157.05 27.0352 1157.09 26.4161 1156.65 26.0166C1156.2 25.6173 1155.45 25.5881 1154.96 25.9524Z" fill="#181A1C"/>
<defs>
<linearGradient id="paint0_linear" x1="512.173" y1="5.13205" x2="512.173" y2="35.7373" gradientUnits="userSpaceOnUse">
<stop stop-color="#DE9329"/>
<stop offset="1" stop-color="#D64C1B"/>
</linearGradient>
<linearGradient id="paint1_linear" x1="487.547" y1="5.13208" x2="487.547" y2="35.7372" gradientUnits="userSpaceOnUse">
<stop stop-color="#DE9329"/>
<stop offset="1" stop-color="#D64C1B"/>
</linearGradient>
<linearGradient id="paint2_linear" x1="482.758" y1="5.132" x2="482.758" y2="35.7372" gradientUnits="userSpaceOnUse">
<stop stop-color="#DE9329"/>
<stop offset="1" stop-color="#D64C1B"/>
</linearGradient>
<linearGradient id="paint3_linear" x1="477.969" y1="5.13201" x2="477.969" y2="35.7371" gradientUnits="userSpaceOnUse">
<stop stop-color="#DE9329"/>
<stop offset="1" stop-color="#D64C1B"/>
</linearGradient>
<linearGradient id="paint4_linear" x1="473.181" y1="5.13207" x2="473.181" y2="35.7372" gradientUnits="userSpaceOnUse">
<stop stop-color="#DE9329"/>
<stop offset="1" stop-color="#D64C1B"/>
</linearGradient>
<linearGradient id="paint5_linear" x1="468.392" y1="5.13196" x2="468.392" y2="35.7371" gradientUnits="userSpaceOnUse">
<stop stop-color="#DE9329"/>
<stop offset="1" stop-color="#D64C1B"/>
</linearGradient>
<linearGradient id="paint6_linear" x1="463.603" y1="5.13208" x2="463.603" y2="35.7372" gradientUnits="userSpaceOnUse">
<stop stop-color="#DE9329"/>
<stop offset="1" stop-color="#D64C1B"/>
</linearGradient>
<linearGradient id="paint7_linear" x1="458.814" y1="5.13215" x2="458.814" y2="35.7372" gradientUnits="userSpaceOnUse">
<stop stop-color="#DE9329"/>
<stop offset="1" stop-color="#D64C1B"/>
</linearGradient>
<linearGradient id="paint8_linear" x1="454.025" y1="5.13212" x2="454.025" y2="35.7372" gradientUnits="userSpaceOnUse">
<stop stop-color="#DE9329"/>
<stop offset="1" stop-color="#D64C1B"/>
</linearGradient>
<linearGradient id="paint9_linear" x1="449.236" y1="5.132" x2="449.236" y2="35.7372" gradientUnits="userSpaceOnUse">
<stop stop-color="#DE9329"/>
<stop offset="1" stop-color="#D64C1B"/>
</linearGradient>
<linearGradient id="paint10_linear" x1="444.447" y1="5.13233" x2="444.447" y2="35.7372" gradientUnits="userSpaceOnUse">
<stop stop-color="#DE9329"/>
<stop offset="1" stop-color="#D64C1B"/>
</linearGradient>
</defs>
</svg>
