<svg width="276" height="68" viewBox="0 0 276 68" fill="none" xmlns="http://www.w3.org/2000/svg">
<path d="M10.64 24.42C16.905 24.42 19.985 21.2 19.985 16.93C19.985 8.215 6.58 10.7 6.58 7.025C6.58 5.625 7.77 4.715 9.87 4.715C12.25 4.715 14.77 5.52 16.66 7.27L19.425 3.56C17.115 1.425 14.035 0.304998 10.325 0.304998C4.83 0.304998 1.47 3.525 1.47 7.41C1.47 16.195 14.91 13.36 14.91 17.42C14.91 18.785 13.615 20.01 10.85 20.01C7.63 20.01 5.075 18.54 3.43 16.825L0.7 20.71C2.905 22.915 6.125 24.42 10.64 24.42ZM31.1363 24.42C33.7613 24.42 36.4213 23.615 38.1013 22.075L36.1063 19.135C35.0213 20.185 33.0613 20.78 31.6263 20.78C28.7563 20.78 27.0763 19.065 26.7613 17H39.3263V15.95C39.3263 10.455 35.9313 6.675 30.8563 6.675C25.7463 6.675 22.1063 10.63 22.1063 15.53C22.1063 20.955 25.9913 24.42 31.1363 24.42ZM35.0563 13.92H26.7263C26.9013 12.24 28.0913 10.315 30.8563 10.315C33.7963 10.315 34.9163 12.31 35.0563 13.92ZM50.412 24.42C53.877 24.42 55.977 22.88 57.097 21.34L54.192 18.61C53.387 19.765 52.162 20.465 50.622 20.465C47.927 20.465 46.037 18.47 46.037 15.53C46.037 12.59 47.927 10.63 50.622 10.63C52.162 10.63 53.387 11.26 54.192 12.45L57.097 9.72C55.977 8.18 53.877 6.675 50.412 6.675C45.232 6.675 41.452 10.35 41.452 15.53C41.452 20.745 45.232 24.42 50.412 24.42ZM75.8579 24V7.095H71.4129V18.54C70.6429 19.52 69.2779 20.465 67.5629 20.465C65.6729 20.465 64.4479 19.695 64.4479 17.35V7.095H60.0029V19.1C60.0029 22.39 61.7529 24.42 65.4629 24.42C68.2279 24.42 70.2579 23.125 71.4129 21.865V24H75.8579ZM84.7164 24V12.835C85.4514 11.75 87.4114 10.91 88.8814 10.91C89.4064 10.91 89.7914 10.945 90.1064 11.015V6.675C88.0064 6.675 85.9414 7.9 84.7164 9.37V7.095H80.2714V24H84.7164ZM100.829 24.42C103.454 24.42 106.114 23.615 107.794 22.075L105.799 19.135C104.714 20.185 102.754 20.78 101.319 20.78C98.4487 20.78 96.7687 19.065 96.4537 17H109.019V15.95C109.019 10.455 105.624 6.675 100.549 6.675C95.4387 6.675 91.7987 10.63 91.7987 15.53C91.7987 20.955 95.6837 24.42 100.829 24.42ZM104.749 13.92H96.4187C96.5937 12.24 97.7837 10.315 100.549 10.315C103.489 10.315 104.609 12.31 104.749 13.92ZM126.294 24V0.654998H121.324V24H126.294ZM146.713 24V12.065C146.713 8.775 144.928 6.675 141.183 6.675C138.453 6.675 136.353 8.005 135.268 9.265V7.095H130.823V24H135.268V12.59C136.038 11.61 137.368 10.63 139.118 10.63C141.008 10.63 142.233 11.435 142.233 13.78V24H146.713ZM156.762 24.42C158.617 24.42 159.807 23.93 160.472 23.335L159.527 19.94C159.282 20.22 158.652 20.465 157.987 20.465C157.007 20.465 156.447 19.66 156.447 18.575V10.98H159.877V7.095H156.447V2.475H152.002V7.095H149.202V10.98H152.002V19.765C152.002 22.81 153.647 24.42 156.762 24.42ZM170.863 24.42C173.488 24.42 176.148 23.615 177.828 22.075L175.833 19.135C174.748 20.185 172.788 20.78 171.353 20.78C168.483 20.78 166.803 19.065 166.488 17H179.053V15.95C179.053 10.455 175.658 6.675 170.583 6.675C165.473 6.675 161.833 10.63 161.833 15.53C161.833 20.955 165.718 24.42 170.863 24.42ZM174.783 13.92H166.453C166.628 12.24 167.818 10.315 170.583 10.315C173.523 10.315 174.643 12.31 174.783 13.92ZM186.709 24V12.835C187.444 11.75 189.404 10.91 190.874 10.91C191.399 10.91 191.784 10.945 192.099 11.015V6.675C189.999 6.675 187.934 7.9 186.709 9.37V7.095H182.264V24H186.709ZM210.766 24V12.065C210.766 8.775 208.981 6.675 205.236 6.675C202.506 6.675 200.406 8.005 199.321 9.265V7.095H194.876V24H199.321V12.59C200.091 11.61 201.421 10.63 203.171 10.63C205.061 10.63 206.286 11.435 206.286 13.78V24H210.766ZM223.089 24.42C225.714 24.42 228.374 23.615 230.054 22.075L228.059 19.135C226.974 20.185 225.014 20.78 223.579 20.78C220.709 20.78 219.029 19.065 218.714 17H231.279V15.95C231.279 10.455 227.884 6.675 222.809 6.675C217.699 6.675 214.059 10.63 214.059 15.53C214.059 20.955 217.944 24.42 223.089 24.42ZM227.009 13.92H218.679C218.854 12.24 220.044 10.315 222.809 10.315C225.749 10.315 226.869 12.31 227.009 13.92ZM240.16 24.42C242.015 24.42 243.205 23.93 243.87 23.335L242.925 19.94C242.68 20.22 242.05 20.465 241.385 20.465C240.405 20.465 239.845 19.66 239.845 18.575V10.98H243.275V7.095H239.845V2.475H235.4V7.095H232.6V10.98H235.4V19.765C235.4 22.81 237.045 24.42 240.16 24.42ZM275.431 24C273.821 22.355 272.316 20.815 270.916 19.275C272.281 17.525 273.331 15.53 274.171 13.675L270.636 12.03C270.216 13.395 269.481 15.04 268.501 16.58C267.836 15.81 267.171 15.005 266.506 14.165C265.911 13.465 265.211 12.59 264.511 11.645C267.381 10.315 270.216 8.81 270.216 5.24C270.216 2.09 267.381 0.304998 264.091 0.304998C260.206 0.304998 257.441 2.755 257.441 5.905C257.441 7.48 258.036 9.195 258.981 10.91C256.286 12.275 253.941 14.13 253.941 17.665C253.941 22.18 257.371 24.42 261.641 24.42C264.126 24.42 266.261 23.58 268.011 22.25C268.676 22.95 269.271 23.545 269.761 24H275.431ZM262.271 20.92C260.346 20.92 258.666 19.52 258.666 17.245C258.666 15.635 259.471 14.55 260.696 13.675C261.431 14.76 262.271 15.81 263.041 16.755C263.601 17.455 264.581 18.575 265.631 19.73C264.616 20.465 263.461 20.92 262.271 20.92ZM261.851 6.01C261.851 4.54 262.936 3.525 264.301 3.525C265.456 3.525 266.366 4.26 266.366 5.485C266.366 7.2 264.826 8.215 262.866 9.16C262.236 8.04 261.851 6.955 261.851 6.01ZM7.28 67V58.67H13.23C18.27 58.67 21.07 55.24 21.07 51.18C21.07 47.085 18.305 43.655 13.23 43.655H2.31V67H7.28ZM12.53 54.295H7.28V48.03H12.53C14.49 48.03 15.995 49.22 15.995 51.18C15.995 53.105 14.49 54.295 12.53 54.295ZM28.525 67V55.835C29.26 54.75 31.22 53.91 32.69 53.91C33.215 53.91 33.6 53.945 33.915 54.015V49.675C31.815 49.675 29.75 50.9 28.525 52.37V50.095H24.08V67H28.525ZM38.8973 48.275C40.3673 48.275 41.5573 47.085 41.5573 45.615C41.5573 44.145 40.3673 42.99 38.8973 42.99C37.4623 42.99 36.2723 44.145 36.2723 45.615C36.2723 47.085 37.4623 48.275 38.8973 48.275ZM41.1373 67V50.095H36.6923V67H41.1373ZM54.7148 67L61.5048 50.095H56.7448L52.2998 61.855L47.8898 50.095H43.1298L49.9198 67H54.7148ZM79.5892 67V50.095H75.1092V52.265C73.7442 50.515 71.8892 49.675 69.8942 49.675C65.5892 49.675 62.4042 53.035 62.4042 58.53C62.4042 64.2 65.6592 67.42 69.8942 67.42C71.9592 67.42 73.7792 66.51 75.1092 64.83V67H79.5892ZM71.2942 63.465C68.7392 63.465 66.9892 61.47 66.9892 58.53C66.9892 55.625 68.7392 53.63 71.2942 53.63C72.7642 53.63 74.3742 54.47 75.1092 55.59V61.54C74.3742 62.66 72.7642 63.465 71.2942 63.465ZM89.667 67.42C91.522 67.42 92.712 66.93 93.377 66.335L92.432 62.94C92.187 63.22 91.557 63.465 90.892 63.465C89.912 63.465 89.352 62.66 89.352 61.575V53.98H92.782V50.095H89.352V45.475H84.907V50.095H82.107V53.98H84.907V62.765C84.907 65.81 86.552 67.42 89.667 67.42ZM103.768 67.42C106.393 67.42 109.053 66.615 110.733 65.075L108.738 62.135C107.653 63.185 105.693 63.78 104.258 63.78C101.388 63.78 99.7082 62.065 99.3932 60H111.958V58.95C111.958 53.455 108.563 49.675 103.488 49.675C98.3782 49.675 94.7382 53.63 94.7382 58.53C94.7382 63.955 98.6232 67.42 103.768 67.42ZM107.688 56.92H99.3582C99.5332 55.24 100.723 53.315 103.488 53.315C106.428 53.315 107.548 55.31 107.688 56.92ZM146.033 67L137.038 43.655H130.808L121.813 67H127.448L128.918 63.045H138.928L140.398 67H146.033ZM137.563 58.67H130.283L133.923 48.625L137.563 58.67ZM155.959 67.42C159.424 67.42 161.524 65.88 162.644 64.34L159.739 61.61C158.934 62.765 157.709 63.465 156.169 63.465C153.474 63.465 151.584 61.47 151.584 58.53C151.584 55.59 153.474 53.63 156.169 53.63C157.709 53.63 158.934 54.26 159.739 55.45L162.644 52.72C161.524 51.18 159.424 49.675 155.959 49.675C150.779 49.675 146.999 53.35 146.999 58.53C146.999 63.745 150.779 67.42 155.959 67.42ZM173.425 67.42C176.89 67.42 178.99 65.88 180.11 64.34L177.205 61.61C176.4 62.765 175.175 63.465 173.635 63.465C170.94 63.465 169.05 61.47 169.05 58.53C169.05 55.59 170.94 53.63 173.635 53.63C175.175 53.63 176.4 54.26 177.205 55.45L180.11 52.72C178.99 51.18 176.89 49.675 173.425 49.675C168.245 49.675 164.465 53.35 164.465 58.53C164.465 63.745 168.245 67.42 173.425 67.42ZM190.961 67.42C193.586 67.42 196.246 66.615 197.926 65.075L195.931 62.135C194.846 63.185 192.886 63.78 191.451 63.78C188.581 63.78 186.901 62.065 186.586 60H199.151V58.95C199.151 53.455 195.756 49.675 190.681 49.675C185.571 49.675 181.931 53.63 181.931 58.53C181.931 63.955 185.816 67.42 190.961 67.42ZM194.881 56.92H186.551C186.726 55.24 187.916 53.315 190.681 53.315C193.621 53.315 194.741 55.31 194.881 56.92ZM208.451 67.42C213.141 67.42 215.801 65.145 215.801 62.03C215.801 55.205 205.756 57.305 205.756 54.82C205.756 53.875 206.806 53.175 208.416 53.175C210.481 53.175 212.406 54.085 213.421 55.135L215.206 51.985C213.526 50.655 211.251 49.675 208.416 49.675C203.936 49.675 201.486 52.16 201.486 54.995C201.486 61.645 211.496 59.37 211.496 62.135C211.496 63.185 210.586 63.92 208.661 63.92C206.561 63.92 204.076 62.765 202.816 61.575L200.891 64.795C202.676 66.44 205.511 67.42 208.451 67.42ZM225.131 67.42C229.821 67.42 232.481 65.145 232.481 62.03C232.481 55.205 222.436 57.305 222.436 54.82C222.436 53.875 223.486 53.175 225.096 53.175C227.161 53.175 229.086 54.085 230.101 55.135L231.886 51.985C230.206 50.655 227.931 49.675 225.096 49.675C220.616 49.675 218.166 52.16 218.166 54.995C218.166 61.645 228.176 59.37 228.176 62.135C228.176 63.185 227.266 63.92 225.341 63.92C223.241 63.92 220.756 62.765 219.496 61.575L217.571 64.795C219.356 66.44 222.191 67.42 225.131 67.42Z" fill="black"/>
</svg>
